<?xml version="1.0" encoding="utf-8"?>
<!-- Generator: Adobe Illustrator 24.3.0, SVG Export Plug-In . SVG Version: 6.00 Build 0)  -->
<svg version="1.1" xmlns="http://www.w3.org/2000/svg" xmlns:xlink="http://www.w3.org/1999/xlink" x="0px" y="0px" width="125px"
	 height="125px" viewBox="0 0 125 125" style="enable-background:new 0 0 125 125;" xml:space="preserve">
<style type="text/css">
	.st0{fill:#FFFFFF;}
	.st1{stroke:#000000;stroke-width:5;stroke-miterlimit:20;}
	.st2{fill:#C60000;stroke:#000000;stroke-width:2;stroke-miterlimit:10;}
</style>
<g id="Capa_1">
	<path class="st0" d="M0,0h125v125H0V0z"/>
	<path class="st1" d="M0,2.5h35 M50,2.5h15 M75,2.5h5 M90,2.5h35 M0,7.5h5 M30,7.5h5 M50,7.5h10 M65,7.5h5 M75,7.5h10 M90,7.5h5
		 M120,7.5h5 M0,12.5h5 M10,12.5h15 M30,12.5h5 M45,12.5h5 M55,12.5h10 M90,12.5h5 M100,12.5h15 M120,12.5h5 M0,17.5h5 M10,17.5h15
		 M30,17.5h5 M50,17.5h10 M70,17.5h15 M90,17.5h5 M100,17.5h15 M120,17.5h5 M0,22.5h5 M10,22.5h15 M30,22.5h5 M45,22.5h10 M60,22.5
		h5 M70,22.5h5 M80,22.5h5 M90,22.5h5 M100,22.5h15 M120,22.5h5 M0,27.5h5 M30,27.5h5 M40,27.5h5 M50,27.5h10 M65,27.5h5 M75,27.5
		h10 M90,27.5h5 M120,27.5h5 M0,32.5h35 M40,32.5h5 M50,32.5h5 M60,32.5h5 M70,32.5h5 M80,32.5h5 M90,32.5h35 M45,37.5h15 M80,37.5
		h5 M0,42.5h5 M15,42.5h5 M25,42.5h10 M40,42.5h5 M55,42.5h5 M65,42.5h10 M85,42.5h5 M95,42.5h5 M15,47.5h15 M35,47.5h5 M50,47.5h20
		 M85,47.5h10 M120,47.5h5 M0,52.5h5 M10,52.5h5 M30,52.5h10 M50,52.5h25 M80,52.5h5 M95,52.5h5 M115,52.5h10 M5,57.5h20 M35,57.5h5
		 M45,57.5h5 M55,57.5h5 M65,57.5h5 M80,57.5h10 M95,57.5h10 M5,62.5h5 M20,62.5h25 M55,62.5h10 M75,62.5h20 M105,62.5h5 M115,62.5
		h10 M35,67.5h15 M55,67.5h15 M80,67.5h5 M90,67.5h10 M105,67.5h10 M120,67.5h5 M0,72.5h5 M10,72.5h5 M20,72.5h5 M30,72.5h25
		 M60,72.5h5 M90,72.5h15 M110,72.5h5 M120,72.5h5 M5,77.5h10 M40,77.5h10 M60,77.5h20 M85,77.5h5 M100,77.5h5 M115,77.5h5 M0,82.5
		h15 M20,82.5h15 M55,82.5h5 M65,82.5h5 M75,82.5h40 M40,87.5h5 M50,87.5h5 M65,87.5h10 M80,87.5h5 M100,87.5h10 M120,87.5h5
		 M0,92.5h35 M70,92.5h15 M90,92.5h5 M100,92.5h10 M115,92.5h10 M0,97.5h5 M30,97.5h5 M40,97.5h10 M55,97.5h5 M70,97.5h5 M80,97.5h5
		 M100,97.5h25 M0,102.5h5 M10,102.5h15 M30,102.5h5 M45,102.5h5 M55,102.5h10 M80,102.5h30 M120,102.5h5 M0,107.5h5 M10,107.5h15
		 M30,107.5h5 M40,107.5h10 M55,107.5h15 M75,107.5h5 M85,107.5h5 M95,107.5h20 M0,112.5h5 M10,112.5h15 M30,112.5h5 M55,112.5h30
		 M95,112.5h10 M110,112.5h5 M120,112.5h5 M0,117.5h5 M30,117.5h5 M45,117.5h5 M55,117.5h40 M105,117.5h5 M0,122.5h35 M40,122.5h25
		 M70,122.5h15 M95,122.5h5 M115,122.5h10"/>
</g>
<g id="Capa_2">
	<g>
		<path class="st2" d="M34.8,104.4c-0.3,0.9-1.4,2.7-3.2,4.5c-5.2,5.2-11.2,4.7-15.6,0.3c-5.2-5.2-4.3-11.7,0.2-16.3
			c1.8-1.8,3.5-2.8,4.4-3.1l2,3.4c-1,0.4-2.2,1.1-3.4,2.3c-2.7,2.7-3.2,6.5,0.2,9.8c3,3,6.8,3.2,9.8,0.1c1.1-1.1,2-2.4,2.4-3.4
			L34.8,104.4z"/>
		<path class="st2" d="M40.1,87.1l-5.6,5.6l3.6,3.6l6.2-6.2l2.8,2.8l-9.7,9.7L22.4,87.4l9.3-9.3l2.8,2.8l-5.9,5.9l3.2,3.2l5.6-5.6
			L40.1,87.1z"/>
		<path class="st2" d="M34.6,75.6c0.9-1.3,2.4-3,4.3-4.9c2.3-2.3,4.2-3.5,6.1-3.7c1.6-0.2,3.2,0.4,4.6,1.8c1.9,1.9,1.9,4.6,1,6.4
			l0.1,0.1c1.5-0.6,3.1-0.2,4.8,0.8c2.2,1.3,4.6,2.8,5.5,3.1l-3.5,3.5c-0.7-0.2-2.3-1.1-4.6-2.5c-2.3-1.5-3.5-1.3-4.9,0.1l-1,1l6,6
			l-3.4,3.4L34.6,75.6z M44.5,78.7l1.4-1.4c1.7-1.7,1.9-3.6,0.5-4.9c-1.4-1.4-3-1.1-4.6,0.4c-0.8,0.8-1.3,1.4-1.4,1.7L44.5,78.7z"/>
		<path class="st2" d="M47.9,62.2c0.9-1.3,2.4-3,4.3-4.9c2.3-2.3,4.2-3.5,6.1-3.7c1.6-0.2,3.2,0.4,4.6,1.8c1.9,1.9,1.9,4.6,1,6.4
			l0.1,0.1c1.5-0.6,3.1-0.2,4.8,0.8c2.2,1.3,4.6,2.8,5.5,3.1l-3.5,3.5c-0.7-0.2-2.3-1.1-4.6-2.5c-2.3-1.5-3.5-1.3-4.9,0.1l-1,1l6,6
			l-3.4,3.4L47.9,62.2z M57.8,65.4l1.4-1.4c1.7-1.7,1.9-3.6,0.5-4.9c-1.4-1.4-3-1.1-4.6,0.4c-0.8,0.8-1.3,1.4-1.4,1.7L57.8,65.4z"/>
		<path class="st2" d="M76.1,56.2l2.8,5l-3.5,3.5L64.8,44.9l4.5-4.5l19.9,10.4l-3.7,3.7l-5.1-2.7L76.1,56.2z M77.4,49.8l-4.2-2.3
			c-1.2-0.6-2.6-1.5-3.7-2.2l0,0c0.7,1.1,1.6,2.5,2.2,3.6l2.3,4.1L77.4,49.8z"/>
		<path class="st2" d="M76.3,33.9c1.1-1.5,2.6-3.2,4.3-5c2.9-2.9,5.3-4.3,7.9-4.6c2.7-0.4,5.6,0.5,8.3,3.2c2.9,2.9,3.8,6,3.6,8.6
			c-0.3,2.9-2.1,6-5.1,9c-1.8,1.8-3.2,2.9-4.1,3.7L76.3,33.9z M92,42.9c0.4-0.2,0.9-0.7,1.3-1.1c3.2-3.1,3.5-6.9-0.1-10.5
			c-3.2-3.2-6.7-3-9.6,0c-0.7,0.7-1.2,1.3-1.4,1.7L92,42.9z"/>
		<path class="st2" d="M113,11.6c5,5,5,11,0.5,15.4c-4.5,4.5-10.5,3.7-14.9-0.6c-4.5-4.5-5-10.9-0.6-15.3
			C102.8,6.4,108.8,7.4,113,11.6z M102.2,22.7c3,3,6.5,3.7,8.8,1.4c2.3-2.3,1.4-5.9-1.5-8.8c-2.7-2.7-6.4-3.8-8.7-1.4
			C98.4,16.2,99.3,19.8,102.2,22.7z"/>
	</g>
</g>
</svg>
